<svg width="23" height="18" viewBox="0 0 23 18" fill="none" xmlns="http://www.w3.org/2000/svg">
<g clip-path="url(#clip0_2_175)">
<g clip-path="url(#clip1_2_175)">
<g clip-path="url(#clip2_2_175)">
<path fill-rule="evenodd" clip-rule="evenodd" d="M17.2649 17.7814C17.5543 17.9864 17.9274 18.0376 18.2601 17.9118C18.5927 17.785 18.8372 17.5009 18.9109 17.1566C19.6922 13.4851 21.5873 4.19217 22.2984 0.852385C22.3523 0.600665 22.2624 0.339056 22.0646 0.170943C21.8669 0.00283032 21.5927 -0.0457158 21.3481 0.0450832C17.5786 1.44033 5.96984 5.79599 1.22492 7.55174C0.923756 7.66321 0.727773 7.95269 0.737662 8.27004C0.74845 8.58828 0.962413 8.86428 1.27077 8.95687C3.3987 9.59334 6.1919 10.4789 6.1919 10.4789C6.1919 10.4789 7.49724 14.421 8.17779 16.4257C8.26319 16.6775 8.46007 16.8752 8.71988 16.9436C8.9788 17.011 9.25569 16.94 9.44897 16.7575C10.5421 15.7254 12.2323 14.1297 12.2323 14.1297C12.2323 14.1297 15.4435 16.4842 17.2649 17.7814ZM7.36689 9.98081L8.87631 14.9595L9.21164 11.8067C9.21164 11.8067 15.0434 6.54665 18.3679 3.54849C18.465 3.46039 18.4785 3.31295 18.3976 3.20957C18.3176 3.10618 18.1702 3.08191 18.0596 3.15203C14.2065 5.61259 7.36689 9.98081 7.36689 9.98081Z" fill="white"/>
</g>
</g>
</g>
<defs>
<clipPath id="clip0_2_175">
<rect width="21.59" height="17.98" fill="white" transform="translate(0.730469)"/>
</clipPath>
<clipPath id="clip1_2_175">
<rect width="21.59" height="17.98" fill="white" transform="translate(0.730469)"/>
</clipPath>
<clipPath id="clip2_2_175">
<rect width="21.576" height="17.98" fill="white" transform="translate(0.737305)"/>
</clipPath>
</defs>
</svg>
